<svg width="39" height="44" viewBox="0 0 39 44" fill="none" xmlns="http://www.w3.org/2000/svg">
<path d="M8.16667 24.2222H30.3889M14.8333 30.8889H14.8556M23.7222 30.8889H23.7444M3.72222 42L9.27778 36.4444M34.8333 42L29.2778 36.4444M19.2778 10.8889V2M1.5 4.22222L1.7696 3.95262C3.01984 2.70238 4.71553 2 6.48364 2H32.072C33.84 2 35.5358 2.70238 36.786 3.95262L37.0556 4.22222M15.2778 37.5556H23.2778C25.7669 37.5556 27.0116 37.5556 27.9622 37.0711C28.7984 36.6451 29.4784 35.9651 29.9044 35.1289C30.3889 34.1782 30.3889 32.9336 30.3889 30.4444V18C30.3889 15.5109 30.3889 14.2663 29.9044 13.3156C29.4784 12.4793 28.7984 11.7994 27.9622 11.3733C27.0116 10.8889 25.7669 10.8889 23.2778 10.8889H15.2778C12.7886 10.8889 11.5441 10.8889 10.5934 11.3733C9.75709 11.7994 9.07718 12.4793 8.65109 13.3156C8.16667 14.2663 8.16667 15.5109 8.16667 18V30.4444C8.16667 32.9336 8.16667 34.1782 8.65109 35.1289C9.07718 35.9651 9.75709 36.6451 10.5934 37.0711C11.5441 37.5556 12.7886 37.5556 15.2778 37.5556Z" stroke="#E21A1A" stroke-width="3" stroke-linecap="round" stroke-linejoin="round"/>
</svg>
